HIERARCHY
ROOT Pelvis
{
	OFFSET 0.000000 0.000000 0.000000
	CHANNELS 6 Xposition Yposition Zposition Xrotation Yrotation Zrotation
	JOINT LeftUpLeg_virtual
	{
		OFFSET 0.000000 0.000000 0.000000
		CHANNELS 3 Xrotation Yrotation Zrotation
		JOINT LeftUpLeg
		{
			OFFSET 18.735201 -5.666702 -4.541200
			CHANNELS 3 Xrotation Yrotation Zrotation
			JOINT LeftLeg
			{
				OFFSET -0.021200 -31.938179 0.493100
				CHANNELS 3 Xrotation Yrotation Zrotation
				JOINT LeftFoot
				{
					OFFSET 0.021200 -31.938179 -4.336299
					CHANNELS 3 Xrotation Yrotation Zrotation
					JOINT LeftToeBase
					{
						OFFSET 0.943001 -26.722000 15.023500
						CHANNELS 3 Xrotation Yrotation Zrotation
						End Site
						{
							OFFSET 0 0 0
						}
					}
				}
			}
		}
	}
	JOINT RightUpLeg_virtual
	{
		OFFSET 0.000000 0.000000 0.000000
		CHANNELS 3 Xrotation Yrotation Zrotation
		JOINT RightUpLeg
		{
			OFFSET -18.735201 -5.666702 -4.541200
			CHANNELS 3 Xrotation Yrotation Zrotation
			JOINT RightLeg
			{
				OFFSET 0.018946 -31.938133 0.493100
				CHANNELS 3 Xrotation Yrotation Zrotation
				JOINT RightFoot
				{
					OFFSET -0.018946 -31.938126 -4.336299
					CHANNELS 3 Xrotation Yrotation Zrotation
					JOINT RightToeBase
					{
						OFFSET -0.943001 -26.722004 15.023500
						CHANNELS 3 Xrotation Yrotation Zrotation
						End Site
						{
							OFFSET 0 0 0
						}
					}
				}
			}
		}
	}
	JOINT Hips_virtual
	{
		OFFSET 0.000000 0.000000 0.000000
		CHANNELS 3 Xrotation Yrotation Zrotation
		JOINT Hips
		{
			OFFSET -0.000000 -0.000000 -0.000000
			CHANNELS 3 Xrotation Yrotation Zrotation
			JOINT Spine
			{
				OFFSET 0.000000 10.199997 -0.299500
				CHANNELS 3 Xrotation Yrotation Zrotation
				JOINT Spine1
				{
					OFFSET 0.000000 11.900002 -1.516600
					CHANNELS 3 Xrotation Yrotation Zrotation
					JOINT Spine2
					{
						OFFSET 0.000000 13.600006 -2.842500
						CHANNELS 3 Xrotation Yrotation Zrotation
						JOINT Neck_virtual
						{
							OFFSET 0.000000 0.000000 0.000000
							CHANNELS 3 Xrotation Yrotation Zrotation
							JOINT Neck
							{
								OFFSET 0.000000 9.624100 -2.890100
								CHANNELS 3 Xrotation Yrotation Zrotation
								JOINT Head
								{
									OFFSET 0.000000 14.068802 -1.351900
									CHANNELS 3 Xrotation Yrotation Zrotation
									End Site
									{
										OFFSET 0 0 0
									}
								}
							}
						}
						JOINT LeftShoulder_virtual
						{
							OFFSET 0.000000 0.000000 0.000000
							CHANNELS 3 Xrotation Yrotation Zrotation
							JOINT LeftShoulder
							{
								OFFSET 15.263000 10.923401 -0.547700
								CHANNELS 3 Xrotation Yrotation Zrotation
								JOINT LeftArm
								{
									OFFSET 25.438599 -2.830597 -13.032500
									CHANNELS 3 Xrotation Yrotation Zrotation
									JOINT LeftForeArm
									{
										OFFSET 29.960503 0.000000 0.000000
										CHANNELS 3 Xrotation Yrotation Zrotation
										JOINT LeftHand
										{
											OFFSET 27.849251 0.000000 0.000000
											CHANNELS 3 Xrotation Yrotation Zrotation
											End Site
											{
												OFFSET 0 0 0
											}
										}
									}
								}
							}
						}
						JOINT RightShoulder_virtual
						{
							OFFSET 0.000000 0.000000 0.000000
							CHANNELS 3 Xrotation Yrotation Zrotation
							JOINT RightShoulder
							{
								OFFSET -15.263000 10.923401 -0.547700
								CHANNELS 3 Xrotation Yrotation Zrotation
								JOINT RightArm
								{
									OFFSET -25.438599 -2.830597 -13.032500
									CHANNELS 3 Xrotation Yrotation Zrotation
									JOINT RightForeArm
									{
										OFFSET -29.960503 0.000000 0.000000
										CHANNELS 3 Xrotation Yrotation Zrotation
										JOINT RightHand
										{
											OFFSET -27.849251 0.000000 0.000000
											CHANNELS 3 Xrotation Yrotation Zrotation
											End Site
											{
												OFFSET 0 0 0
											}
										}
									}
								}
							}
						}
					}
				}
			}
		}
	}
}
MOTION
Frames: 13
Frame Time: 0.03333333
-2.629495 80.373825 2.605095 0.000000 0.000000 0.000000 -5.290073 -44.954048 0.012939 -36.911001 3.269460 21.343822 62.508423 -8.152255 4.188304 -22.911070 -6.711861 -18.589794 0.000000 0.000000 0.000000 -5.290073 -44.954048 0.012939 -20.977328 -8.980649 -32.624846 63.053506 -6.514584 -7.419045 -31.031858 -9.960352 27.205933 0.000000 0.000000 0.000000 -5.290073 -44.954048 0.012939 0.000000 0.000001 0.000000 9.462109 7.035652 -1.694631 2.187715 0.989907 -0.915632 0.000000 0.000000 0.000000 2.202829 0.982775 -0.894152 2.650096 3.452583 -0.064204 0.000000 0.000000 0.000000 2.202829 0.982775 -0.894152 1.117182 3.546344 -8.633310 -53.487020 4.935514 -51.502990 -179.999308 -73.641952 -179.999295 0.000000 0.000000 0.000000 2.202829 0.982775 -0.894152 3.036129 13.027183 -5.371405 -48.713729 27.172834 83.457098 -179.999445 74.011657 179.999459 0.000000 0.000000 0.000000 
-2.671347 80.262383 2.358267 0.000000 0.000000 0.000000 -5.394627 -45.217488 -0.053842 -37.576388 2.872734 21.437531 63.187350 -8.056875 4.281776 -21.846982 -6.650985 -18.766826 0.000000 0.000000 0.000000 -5.394627 -45.217488 -0.053842 -21.393848 -8.863281 -32.667190 63.518724 -6.106741 -7.546294 -31.239339 -9.990834 27.283232 0.000000 0.000000 0.000000 -5.394627 -45.217488 -0.053842 -0.000000 -0.000002 -0.000001 9.476479 7.124177 -1.557718 2.190247 1.012035 -0.889779 0.000000 0.000000 0.000000 2.204670 1.005825 -0.868759 2.648600 3.455407 -0.101904 0.000000 0.000000 0.000000 2.204670 1.005825 -0.868759 1.115723 3.626839 -8.693361 -53.153652 4.985190 -51.684335 180.000005 -73.464784 -179.999991 0.000000 0.000000 0.000000 2.204670 1.005825 -0.868759 3.033765 13.290778 -5.488888 -48.445569 26.967610 82.836473 -179.999786 73.782763 179.999786 0.000000 0.000000 0.000000 
-2.683264 80.147018 2.149208 0.000000 0.000000 0.000000 -5.525758 -45.505876 -0.151723 -38.238500 2.454203 21.526560 63.947981 -7.891515 4.323566 -20.783999 -6.682648 -18.910567 0.000000 0.000000 0.000000 -5.525758 -45.505876 -0.151723 -21.883631 -8.768848 -32.707280 64.040127 -5.682573 -7.724607 -31.452738 -9.992881 27.234445 0.000000 0.000000 0.000000 -5.525758 -45.505876 -0.151723 0.000000 -0.000001 0.000001 9.510693 7.186069 -1.409409 2.197573 1.027106 -0.862103 0.000000 0.000000 0.000000 2.211432 1.021842 -0.841509 2.646255 3.457978 -0.138232 0.000000 0.000000 0.000000 2.211432 1.021842 -0.841509 1.116597 3.696294 -8.750944 -52.843019 5.031847 -51.853434 179.999363 -73.327606 179.999377 0.000000 0.000000 0.000000 2.211432 1.021842 -0.841509 3.025578 13.532537 -5.623951 -48.207745 26.760171 82.252963 179.999500 73.525730 -179.999527 0.000000 0.000000 0.000000 
-2.669615 80.026001 1.982195 0.000000 0.000000 0.000000 -5.685328 -45.811213 -0.276818 -38.926279 2.023584 21.581610 64.814807 -7.725416 4.351553 -19.674874 -6.733580 -18.996269 0.000000 0.000000 0.000000 -5.685328 -45.811213 -0.276818 -22.398571 -8.685542 -32.763144 64.574343 -5.229431 -7.941683 -31.656902 -9.980756 27.129773 0.000000 0.000000 0.000000 -5.685328 -45.811213 -0.276818 0.000000 0.000003 0.000000 9.560466 7.221025 -1.259245 2.208616 1.035254 -0.834413 0.000000 0.000000 0.000000 2.222026 1.030869 -0.814189 2.644881 3.459818 -0.171072 0.000000 0.000000 0.000000 2.222026 1.030869 -0.814189 1.119848 3.753402 -8.805219 -52.554815 5.073450 -52.013120 -179.999363 -73.232441 -179.999377 0.000000 0.000000 0.000000 2.222026 1.030869 -0.814189 3.012410 13.754813 -5.753862 -47.992331 26.566304 81.688858 -179.999950 73.243759 179.999950 0.000000 0.000000 0.000000 
-2.635508 79.898064 1.858765 0.000000 0.000000 0.000000 -5.874010 -46.124100 -0.423907 -39.643842 1.585640 21.605420 65.789379 -7.568556 4.351575 -18.493699 -6.789247 -19.011997 0.000000 0.000000 0.000000 -5.874010 -46.124100 -0.423907 -22.895648 -8.602312 -32.847233 65.083985 -4.741197 -8.188956 -31.839938 -9.968460 27.034572 0.000000 0.000000 0.000000 -5.874010 -46.124100 -0.423907 0.000000 -0.000001 0.000000 9.621934 7.231441 -1.114178 2.222426 1.037147 -0.807830 0.000000 0.000000 0.000000 2.235496 1.033575 -0.787906 2.645546 3.460685 -0.199705 0.000000 0.000000 0.000000 2.235496 1.033575 -0.787906 1.125278 3.798843 -8.856253 -52.285884 5.109668 -52.166065 -179.999745 -73.174993 -179.999732 0.000000 0.000000 0.000000 2.235496 1.033575 -0.787906 2.994922 13.960742 -5.866392 -47.791049 26.394195 81.130913 -179.999896 72.940444 179.999896 0.000000 0.000000 0.000000 
-2.581243 79.754944 1.787729 0.000000 0.000000 0.000000 -6.090525 -46.434761 -0.593932 -40.428621 1.115166 21.598397 66.878385 -7.409362 4.327356 -17.202800 -6.923738 -18.970861 0.000000 0.000000 0.000000 -6.090525 -46.434761 -0.593932 -23.366144 -8.523004 -32.971338 65.573525 -4.213111 -8.465395 -32.008876 -9.962910 26.964197 0.000000 0.000000 0.000000 -6.090525 -46.434761 -0.593932 0.000000 -0.000003 0.000000 9.694364 7.203294 -0.972569 2.238806 1.029238 -0.782528 0.000000 0.000000 0.000000 2.251671 1.026493 -0.762821 2.649440 3.459874 -0.221583 0.000000 0.000000 0.000000 2.251671 1.026493 -0.762821 1.135838 3.825114 -8.907142 -52.040475 5.140145 -52.308297 179.999786 -73.154973 179.999814 0.000000 0.000000 0.000000 2.251671 1.026493 -0.762821 2.971310 14.140693 -5.939890 -47.612371 26.273006 80.576268 179.999950 72.615648 -179.999950 0.000000 0.000000 0.000000 
-2.508634 79.587494 1.770920 0.000000 0.000000 0.000000 -6.331440 -46.736044 -0.787646 -41.333726 0.565924 21.556366 68.096638 -7.231560 4.276246 -15.712089 -7.209482 -18.880759 0.000000 0.000000 0.000000 -6.331440 -46.736044 -0.787646 -23.805030 -8.449821 -33.147605 66.043783 -3.625344 -8.769912 -32.170608 -9.971187 26.943498 0.000000 0.000000 0.000000 -6.331440 -46.736044 -0.787646 0.000000 -0.000002 0.000000 9.773120 7.128834 -0.796470 2.257128 1.009189 -0.750955 0.000000 0.000000 0.000000 2.269902 1.007365 -0.731401 2.648148 3.458923 -0.243888 0.000000 0.000000 0.000000 2.269902 1.007365 -0.731401 1.163462 3.821057 -8.986288 -51.810694 5.177647 -52.410097 179.999677 -73.065607 179.999704 0.000000 0.000000 0.000000 2.269902 1.007365 -0.731401 2.943687 14.300184 -6.058949 -47.450598 26.165222 80.055165 -179.999841 72.262350 179.999868 0.000000 0.000000 0.000000 
-2.416970 79.392952 1.803988 0.000000 0.000000 0.000000 -6.591796 -47.025067 -1.003990 -42.306281 -0.027522 21.540885 69.366397 -7.094772 4.194404 -14.109767 -7.614805 -18.830558 0.000000 0.000000 0.000000 -6.591796 -47.025067 -1.003990 -24.217320 -8.373491 -33.361082 66.512881 -3.011235 -9.100365 -32.326175 -9.997158 26.970713 0.000000 0.000000 0.000000 -6.591796 -47.025067 -1.003990 0.000000 -0.000002 0.000000 9.868868 7.032387 -0.595393 2.279006 0.983008 -0.714939 0.000000 0.000000 0.000000 2.291739 0.982159 -0.695485 2.645231 3.457160 -0.266176 0.000000 0.000000 0.000000 2.291739 0.982159 -0.695485 1.198655 3.800240 -9.075614 -51.593261 5.199222 -52.492668 -179.999800 -72.963776 -179.999786 0.000000 0.000000 0.000000 2.291739 0.982159 -0.695485 2.907891 14.413180 -6.191885 -47.333464 26.070451 79.579982 -179.999896 71.906592 179.999896 0.000000 0.000000 0.000000 
-2.296048 79.168785 1.905901 0.000000 0.000000 0.000000 -6.881789 -47.292472 -1.250148 -43.296344 -0.719784 21.704400 70.620591 -7.154031 4.047357 -12.433238 -8.059166 -19.226144 0.000000 0.000000 0.000000 -6.881789 -47.292472 -1.250148 -24.581907 -8.280183 -33.612058 66.980264 -2.409294 -9.455965 -32.464927 -10.044622 27.051668 0.000000 0.000000 0.000000 -6.881789 -47.292472 -1.250148 0.000000 0.000005 0.000000 10.004623 6.925036 -0.373985 2.308898 0.953292 -0.674974 0.000000 0.000000 0.000000 2.321655 0.953442 -0.655524 2.640638 3.453460 -0.287946 0.000000 0.000000 0.000000 2.321655 0.953442 -0.655524 1.234246 3.772994 -9.161641 -51.384852 5.170398 -52.573537 179.999841 -72.884955 179.999855 0.000000 0.000000 0.000000 2.321655 0.953442 -0.655524 2.852592 14.410079 -6.345796 -47.309889 25.994132 79.222681 -179.999868 71.582029 179.999855 0.000000 0.000000 0.000000 
-2.147608 78.919716 2.057116 0.000000 0.000000 0.000000 -7.201048 -47.560830 -1.535076 -44.276056 -1.434829 21.938241 71.850127 -7.272111 3.883586 -10.753826 -8.641846 -19.745800 0.000000 0.000000 0.000000 -7.201048 -47.560830 -1.535076 -24.921006 -8.140371 -33.946252 67.468062 -1.755124 -9.719493 -32.600377 -10.062002 27.120396 0.000000 0.000000 0.000000 -7.201048 -47.560830 -1.535076 0.000000 0.000000 0.000000 10.152607 6.813883 -0.128464 2.341063 0.921897 -0.630605 0.000000 0.000000 0.000000 2.353845 0.923193 -0.611159 2.638694 3.449285 -0.312241 0.000000 0.000000 0.000000 2.353845 0.923193 -0.611159 1.277230 3.725612 -9.254908 -51.201157 5.133864 -52.625638 179.999691 -72.825089 179.999704 0.000000 0.000000 0.000000 2.353845 0.923193 -0.611159 2.796423 14.406314 -6.472248 -47.298876 25.913516 78.850661 -179.999814 71.251058 179.999814 0.000000 0.000000 0.000000 
-1.973227 78.637466 2.279324 0.000000 0.000000 0.000000 -7.534807 -47.831132 -1.850204 -45.313278 -2.333377 22.349870 73.024776 -7.626494 3.713772 -8.780158 -9.314810 -20.881978 0.000000 0.000000 0.000000 -7.534807 -47.831132 -1.850204 -25.219480 -7.890931 -34.472497 68.004095 -0.991279 -9.710786 -32.758383 -9.988503 27.072314 0.000000 0.000000 0.000000 -7.534807 -47.831132 -1.850204 0.000000 -0.000001 0.000000 10.292814 6.703793 0.145816 2.371355 0.890403 -0.581112 0.000000 0.000000 0.000000 2.384084 0.893105 -0.561744 2.645754 3.445769 -0.344311 0.000000 0.000000 0.000000 2.384084 0.893105 -0.561744 1.334708 3.639693 -9.362891 -51.060244 5.134137 -52.617230 -179.999786 -72.790644 -179.999800 0.000000 0.000000 0.000000 2.384084 0.893105 -0.561744 2.758137 14.518088 -6.511337 -47.260545 25.787565 78.332680 -179.999814 70.883341 179.999814 0.000000 0.000000 0.000000 
-1.789825 78.345978 2.551184 0.000000 0.000000 0.000000 -7.870970 -48.131547 -2.175462 -46.278558 -3.225606 22.806852 74.026820 -8.002487 3.549335 -6.767046 -10.237946 -22.088941 0.000000 0.000000 0.000000 -7.870970 -48.131547 -2.175462 -25.529562 -7.616023 -35.025838 68.522766 -0.251241 -9.712067 -32.890906 -9.863192 27.023104 0.000000 0.000000 0.000000 -7.870970 -48.131547 -2.175462 0.000000 0.000002 0.000000 10.428139 6.608000 0.421217 2.400596 0.862090 -0.530233 0.000000 0.000000 0.000000 2.413311 0.866080 -0.510960 2.655714 3.443338 -0.377059 0.000000 0.000000 0.000000 2.413311 0.866080 -0.510960 1.398954 3.539603 -9.481163 -50.951551 5.131709 -52.581436 -179.999964 -72.784927 -179.999937 0.000000 0.000000 0.000000 2.413311 0.866080 -0.510960 2.725851 14.672332 -6.503152 -47.199790 25.663037 77.755741 179.999814 70.487218 -179.999814 0.000000 0.000000 0.000000 
-1.609596 78.077614 2.858421 0.000000 0.000000 0.000000 -8.201424 -48.498820 -2.492135 -47.139186 -4.010460 23.229323 74.833424 -8.283229 3.409229 -4.849700 -11.505747 -23.022613 0.000000 0.000000 0.000000 -8.201424 -48.498820 -2.492135 -25.876412 -7.301951 -35.565335 69.011186 0.443679 -9.723903 -32.982461 -9.677953 26.900903 0.000000 0.000000 0.000000 -8.201424 -48.498820 -2.492135 -0.000000 0.000001 0.000001 10.557910 6.559954 0.672419 2.429082 0.845221 -0.481174 0.000000 0.000000 0.000000 2.441856 0.850233 -0.462065 2.665628 3.441848 -0.405101 0.000000 0.000000 0.000000 2.441856 0.850233 -0.462065 1.471502 3.437387 -9.623567 -50.879541 5.105812 -52.547039 -179.999800 -72.823894 -179.999800 0.000000 0.000000 0.000000 2.441856 0.850233 -0.462065 2.700742 14.876133 -6.457030 -47.075716 25.555018 77.105077 179.999909 70.030093 -179.999909 0.000000 0.000000 0.000000 
